<svg width="380" height="337" viewBox="0 0 380 337" fill="none" xmlns="http://www.w3.org/2000/svg">
<g clip-path="url(#clip0_1_29)">
<path d="M326.571 278.452C320.159 297.194 311.913 315.897 301.35 333.697C301.115 334.098 300.878 334.491 300.639 334.89L274.487 326.633C274.638 326.255 274.802 325.832 274.979 325.371C285.528 298.146 349.167 132.272 346.311 99.5677C346.618 102.245 356.574 190.838 326.571 278.452Z" fill="#E6E6E6"/>
<path d="M306.395 335.29C306.04 335.653 305.675 336.012 305.308 336.364L285.689 330.17C285.954 329.85 286.263 329.472 286.618 329.046C292.429 321.964 309.703 300.761 326.571 278.452C344.698 254.478 362.359 229.23 364.834 218.855C364.337 221.214 348.857 293.03 306.395 335.29Z" fill="#E6E6E6"/>
<path d="M316.202 59.1025C316.194 59.1025 316.187 59.1046 316.18 59.1049V17.1334C316.18 12.5893 314.371 8.23139 311.152 5.01825C307.932 1.80512 303.566 0 299.013 0H167.35C162.797 0 158.43 1.80512 155.211 5.01825C151.991 8.23139 150.183 12.5893 150.183 17.1334V38.6502C149.819 38.6579 149.473 38.8074 149.219 39.0666C148.964 39.3258 148.822 39.6741 148.821 40.0369V50.6944C148.822 51.0572 148.964 51.4055 149.219 51.6647C149.473 51.9239 149.819 52.0733 150.183 52.0809V63.2456H150.113C149.93 63.2456 149.749 63.2816 149.58 63.3514C149.411 63.4212 149.257 63.5236 149.128 63.6527C148.999 63.7817 148.896 63.9349 148.826 64.1036C148.756 64.2722 148.72 64.4529 148.72 64.6354V85.2443C148.72 85.4269 148.756 85.6076 148.826 85.7762C148.896 85.9448 148.999 86.098 149.128 86.2271C149.257 86.3561 149.411 86.4585 149.58 86.5284C149.749 86.5982 149.93 86.6341 150.113 86.6341H150.183V94.8193H150.161C149.978 94.8193 149.797 94.8553 149.628 94.9251C149.459 94.9949 149.306 95.0973 149.176 95.2264C149.047 95.3554 148.944 95.5086 148.874 95.6773C148.804 95.8459 148.768 96.0266 148.768 96.2091V117.02C148.768 117.202 148.804 117.383 148.874 117.551C148.944 117.72 149.047 117.873 149.176 118.002C149.306 118.131 149.459 118.234 149.628 118.304C149.797 118.373 149.978 118.409 150.161 118.409H150.183V319.568C150.183 324.112 151.991 328.47 155.211 331.683C158.43 334.896 162.797 336.701 167.35 336.701H299.013C303.566 336.701 307.932 334.896 311.152 331.683C314.371 328.47 316.18 324.112 316.18 319.568V99.9153C316.187 99.9153 316.194 99.9174 316.202 99.9174C316.527 99.9174 316.85 99.8535 317.151 99.7291C317.451 99.6047 317.725 99.4225 317.955 99.1927C318.185 98.9629 318.368 98.6901 318.493 98.3898C318.617 98.0896 318.681 97.7678 318.681 97.4428V61.5774C318.681 60.921 318.42 60.2915 317.955 59.8274C317.49 59.3633 316.859 59.1025 316.202 59.1025Z" fill="#3F3D56"/>
<path d="M305.93 21.9293V314.767C305.928 318.256 304.539 321.602 302.066 324.069C299.594 326.535 296.241 327.921 292.745 327.921H173.618C170.122 327.921 166.769 326.535 164.296 324.069C161.824 321.602 160.434 318.256 160.433 314.767V21.9293C160.433 18.4394 161.822 15.0925 164.295 12.6248C166.767 10.1571 170.121 8.77078 173.618 8.77078H191.444V11.0799C191.445 13.9531 192.589 16.7083 194.625 18.74C196.661 20.7717 199.421 21.9136 202.3 21.9149H262.908C265.783 21.9085 268.538 20.7642 270.569 18.7329C272.6 16.7016 273.74 13.9493 273.74 11.0799V8.79478H292.745C296.238 8.79478 299.588 10.1778 302.06 12.6403C304.531 15.1028 305.923 18.4436 305.93 21.9293Z" fill="white"/>
<path d="M112.755 164.317C112.05 164.044 111.294 163.93 110.541 163.98C109.787 164.031 109.054 164.246 108.392 164.61C107.731 164.975 107.157 165.479 106.713 166.089C106.268 166.698 105.962 167.397 105.817 168.137L63.3658 191.174L70.8298 199.558L110.254 174.307C111.515 174.468 112.792 174.161 113.842 173.444C114.892 172.728 115.642 171.652 115.95 170.421C116.259 169.189 116.104 167.888 115.515 166.763C114.926 165.638 113.944 164.767 112.755 164.317Z" fill="#FFB8B8"/>
<path d="M101.928 330.067L107.218 326.653L96.5378 304.664L88.7305 309.704L101.928 330.067Z" fill="#FFB8B8"/>
<path d="M120.597 324.969L103.972 335.701L99.8168 329.291L110.259 322.55C111.899 321.491 113.893 321.126 115.802 321.535C117.712 321.944 119.381 323.093 120.441 324.729L120.597 324.969Z" fill="#2F2E41"/>
<path d="M42.5749 330.862H48.8747L51.8729 306.61H42.5749V330.862Z" fill="#FFB8B8"/>
<path d="M61.0248 336.7H41.225V329.065H53.6609C54.628 329.065 55.5855 329.255 56.479 329.625C57.3724 329.994 58.1842 330.535 58.868 331.218C59.5518 331.9 60.0942 332.71 60.4643 333.602C60.8343 334.494 61.0248 335.449 61.0248 336.414V336.7Z" fill="#2F2E41"/>
<path d="M187.114 47.5224H174.127C173.808 47.5224 173.502 47.396 173.276 47.1709C173.051 46.9458 172.924 46.6406 172.924 46.3223C172.924 46.004 173.051 45.6987 173.276 45.4736C173.502 45.2485 173.808 45.1221 174.127 45.1221H187.114C187.433 45.1221 187.739 45.2485 187.964 45.4736C188.19 45.6987 188.316 46.004 188.316 46.3223C188.316 46.6406 188.19 46.9458 187.964 47.1709C187.739 47.396 187.433 47.5224 187.114 47.5224Z" fill="#3F3D56"/>
<path d="M187.114 50.8829H174.127C173.808 50.8829 173.502 50.7564 173.276 50.5313C173.051 50.3063 172.924 50.001 172.924 49.6827C172.924 49.3644 173.051 49.0591 173.276 48.8341C173.502 48.609 173.808 48.4825 174.127 48.4825H187.114C187.433 48.4825 187.739 48.609 187.964 48.8341C188.19 49.0591 188.316 49.3644 188.316 49.6827C188.316 50.001 188.19 50.3063 187.964 50.5313C187.739 50.7564 187.433 50.8829 187.114 50.8829Z" fill="#3F3D56"/>
<path d="M187.114 54.2433H174.127C173.808 54.2433 173.502 54.1169 173.276 53.8918C173.051 53.6667 172.924 53.3614 172.924 53.0431C172.924 52.7248 173.051 52.4196 173.276 52.1945C173.502 51.9694 173.808 51.843 174.127 51.843H187.114C187.433 51.843 187.739 51.9694 187.964 52.1945C188.19 52.4196 188.316 52.7248 188.316 53.0431C188.316 53.3614 188.19 53.6667 187.964 53.8918C187.739 54.1169 187.433 54.2433 187.114 54.2433Z" fill="#3F3D56"/>
<path d="M287.786 50.9068H287.348L287.18 50.7676C287.733 50.1098 288.036 49.2787 288.036 48.4201C288.032 47.7137 287.819 47.0243 287.422 46.4391C287.026 45.8539 286.464 45.3991 285.809 45.1323C285.154 44.8655 284.434 44.7986 283.74 44.9401C283.047 45.0817 282.411 45.4253 281.913 45.9274C281.415 46.4296 281.078 47.0678 280.944 47.7614C280.809 48.455 280.884 49.1727 281.158 49.8239C281.433 50.4751 281.894 51.0304 282.485 51.4197C283.076 51.809 283.769 52.0148 284.476 52.011C285.334 52.0049 286.164 51.703 286.824 51.1565L286.987 51.2957V51.7373L289.748 54.4977L290.576 53.672L287.786 50.9068ZM284.476 50.9068C283.984 50.9087 283.501 50.7648 283.091 50.4931C282.68 50.2214 282.359 49.8343 282.169 49.3806C281.978 48.927 281.927 48.4272 282.021 47.9444C282.115 47.4617 282.351 47.0177 282.698 46.6686C283.045 46.3195 283.488 46.0809 283.971 45.9831C284.454 45.8853 284.955 45.9326 285.411 46.119C285.867 46.3055 286.258 46.6227 286.533 47.0306C286.809 47.4385 286.957 47.9187 286.958 48.4105L286.958 48.4201C286.96 48.7448 286.898 49.0666 286.775 49.3673C286.653 49.668 286.472 49.9416 286.243 50.1725C286.014 50.4034 285.742 50.5871 285.443 50.7131C285.143 50.8391 284.821 50.9049 284.496 50.9068C284.489 50.9068 284.483 50.9069 284.476 50.9068Z" fill="#3F3D56"/>
<path d="M213.572 91.6881H190.241C188.837 91.6881 187.491 91.1318 186.499 90.1415C185.507 89.1511 184.949 87.808 184.949 86.4075C184.949 85.0069 185.507 83.6638 186.499 82.6735C187.491 81.6831 188.837 81.1268 190.241 81.1268H213.572C214.976 81.1268 216.321 81.6831 217.314 82.6735C218.306 83.6638 218.863 85.0069 218.863 86.4075C218.863 87.808 218.306 89.1511 217.314 90.1415C216.321 91.1318 214.976 91.6881 213.572 91.6881Z" fill="#174E9C"/>
<path d="M285 103.21H187.835C187.07 103.21 186.336 102.906 185.795 102.366C185.253 101.826 184.949 101.093 184.949 100.329C184.949 99.5654 185.253 98.8327 185.795 98.2926C186.336 97.7524 187.07 97.4489 187.835 97.4489H285C285.765 97.4489 286.5 97.7524 287.041 98.2926C287.582 98.8327 287.886 99.5654 287.886 100.329C287.886 101.093 287.582 101.826 287.041 102.366C286.5 102.906 285.765 103.21 285 103.21Z" fill="#E6E6E6"/>
<path d="M223.527 114.731H187.835C187.07 114.731 186.336 114.428 185.795 113.888C185.253 113.347 184.949 112.615 184.949 111.851C184.949 111.087 185.253 110.354 185.795 109.814C186.336 109.274 187.07 108.97 187.835 108.97H223.527C224.292 108.97 225.026 109.274 225.567 109.814C226.109 110.354 226.413 111.087 226.413 111.851C226.413 112.615 226.109 113.347 225.567 113.888C225.026 114.428 224.292 114.731 223.527 114.731Z" fill="#E6E6E6"/>
<path d="M213.572 219.385H190.241C188.837 219.385 187.491 218.828 186.499 217.838C185.507 216.848 184.949 215.505 184.949 214.104C184.949 212.704 185.507 211.36 186.499 210.37C187.491 209.38 188.837 208.823 190.241 208.823H213.572C214.976 208.823 216.321 209.38 217.314 210.37C218.306 211.36 218.863 212.704 218.863 214.104C218.863 215.505 218.306 216.848 217.314 217.838C216.321 218.828 214.976 219.385 213.572 219.385Z" fill="#174E9C"/>
<path d="M285 230.906H187.835C187.07 230.906 186.336 230.603 185.795 230.063C185.253 229.522 184.949 228.79 184.949 228.026C184.949 227.262 185.253 226.529 185.795 225.989C186.336 225.449 187.07 225.146 187.835 225.146H285C285.765 225.146 286.5 225.449 287.041 225.989C287.582 226.529 287.886 227.262 287.886 228.026C287.886 228.79 287.582 229.522 287.041 230.063C286.5 230.603 285.765 230.906 285 230.906Z" fill="#E6E6E6"/>
<path d="M223.527 242.428H187.835C187.07 242.428 186.336 242.124 185.795 241.584C185.253 241.044 184.949 240.311 184.949 239.547C184.949 238.783 185.253 238.051 185.795 237.511C186.336 236.97 187.07 236.667 187.835 236.667H223.527C224.292 236.667 225.026 236.97 225.567 237.511C226.109 238.051 226.413 238.783 226.413 239.547C226.413 240.311 226.109 241.044 225.567 241.584C225.026 242.124 224.292 242.428 223.527 242.428Z" fill="#E6E6E6"/>
<path d="M213.572 278.432H190.241C188.837 278.432 187.491 277.876 186.499 276.886C185.507 275.895 184.949 274.552 184.949 273.152C184.949 271.751 185.507 270.408 186.499 269.418C187.491 268.427 188.837 267.871 190.241 267.871H213.572C214.976 267.871 216.321 268.427 217.314 269.418C218.306 270.408 218.863 271.751 218.863 273.152C218.863 274.552 218.306 275.895 217.314 276.886C216.321 277.876 214.976 278.432 213.572 278.432Z" fill="#174E9C"/>
<path d="M285 289.954H187.835C187.07 289.954 186.336 289.65 185.795 289.11C185.253 288.57 184.949 287.837 184.949 287.073C184.949 286.31 185.253 285.577 185.795 285.037C186.336 284.497 187.07 284.193 187.835 284.193H285C285.765 284.193 286.5 284.497 287.041 285.037C287.582 285.577 287.886 286.31 287.886 287.073C287.886 287.837 287.582 288.57 287.041 289.11C286.5 289.65 285.765 289.954 285 289.954Z" fill="#E6E6E6"/>
<path d="M223.527 301.475H187.835C187.07 301.475 186.336 301.172 185.795 300.632C185.253 300.092 184.949 299.359 184.949 298.595C184.949 297.831 185.253 297.098 185.795 296.558C186.336 296.018 187.07 295.715 187.835 295.715H223.527C224.292 295.715 225.026 296.018 225.567 296.558C226.109 297.098 226.413 297.831 226.413 298.595C226.413 299.359 226.109 300.092 225.567 300.632C225.026 301.172 224.292 301.475 223.527 301.475Z" fill="#E6E6E6"/>
<path d="M298.709 189.381H113.038C111.954 189.38 110.915 188.949 110.148 188.184C109.382 187.419 108.951 186.382 108.949 185.3V134.894C108.951 133.812 109.382 132.775 110.148 132.01C110.915 131.245 111.954 130.814 113.038 130.813H298.709C299.793 130.814 300.832 131.245 301.599 132.01C302.365 132.775 302.796 133.812 302.797 134.894V185.3C302.796 186.382 302.365 187.419 301.599 188.184C300.832 188.949 299.793 189.38 298.709 189.381Z" fill="#174E9C"/>
<path d="M46.2886 249.35C48.0636 261.779 38.6646 316.842 39.7084 316.837L53.2056 316.765C53.6866 315.844 59.882 286.133 61.8253 281.366C64.5382 274.75 67.2752 268.053 68.3431 260.987C69.3484 254.352 68.8529 247.593 68.1987 240.916C68.2292 240.717 68.2118 240.514 68.1481 240.323C68.0844 240.133 67.9762 239.96 67.8324 239.819C67.6887 239.678 67.5134 239.574 67.3212 239.514C67.129 239.454 66.9252 239.441 66.7269 239.475L48.6167 238.544C44.8841 238.352 43.999 237.536 44.5666 241.194C44.961 243.926 45.8942 246.585 46.2886 249.35Z" fill="#2F2E41"/>
<path d="M49.8481 219.13C46.1684 224.411 42.3106 230.489 43.5324 236.811C44.4608 241.612 48.1261 245.332 51.5846 248.813C65.4089 262.667 92.6679 323.798 92.6679 323.798C105.823 315.397 92.3544 324.038 105.703 315.157C104.52 315.066 77.6362 218.617 75.4091 218.487C66.3998 217.892 58.6266 217.013 49.8481 219.13Z" fill="#2F2E41"/>
<path d="M64.4028 168.868C62.5338 167.205 49.3989 162.075 49.3989 162.075C49.1574 162.043 48.9124 162.05 48.6732 162.096C47.9257 162.285 47.5847 163.212 47.7443 163.961C47.904 164.711 46.5941 177.031 46.2566 182.633C45.6652 192.411 51.4345 214.559 51.3837 215.236C51.1861 217.651 50.1264 219.915 48.3975 221.617C48.8468 222.173 77.3857 223.29 79.3269 223.949C79.7188 223.453 77.1172 188.322 76.9974 186.338C76.7978 183.325 66.8702 171.15 64.4028 168.868Z" fill="#E6E6E6"/>
<path d="M44.0477 245.096C44.724 244.76 45.3183 244.28 45.7887 243.691C46.2591 243.101 46.5942 242.415 46.7704 241.682C46.9466 240.949 46.9595 240.186 46.8084 239.447C46.6572 238.708 46.3456 238.012 45.8955 237.406L57.9367 170.898L46.7002 170.751L38.3383 236.518C37.3692 237.34 36.7359 238.489 36.5584 239.746C36.381 241.003 36.6717 242.281 37.3754 243.338C38.0792 244.395 39.1471 245.158 40.3769 245.482C41.6066 245.806 42.9127 245.669 44.0477 245.096Z" fill="#FFB8B8"/>
<path d="M43.9509 175.833C43.4823 175.867 43.0156 175.746 42.6233 175.488C41.9547 174.917 47.4094 166.175 48.4869 166.045C51.9934 165.642 55.601 165.507 59.0018 166.453C62.4025 167.399 65.6013 169.549 67.1213 172.732C67.7562 174.057 63.1529 180.725 61.0605 179.746C58.5544 178.575 47.2506 175.915 43.9509 175.833Z" fill="#E6E6E6"/>
<path d="M56.3275 161.358C63.298 161.358 68.9487 155.719 68.9487 148.762C68.9487 141.805 63.298 136.166 56.3275 136.166C49.357 136.166 43.7063 141.805 43.7063 148.762C43.7063 155.719 49.357 161.358 56.3275 161.358Z" fill="#FFB8B8"/>
<path d="M43.9308 169.589C45.6847 169.772 47.4566 169.513 49.0844 168.836C50.7122 168.159 52.144 167.086 53.2487 165.714C54.3534 164.342 55.0957 162.716 55.4078 160.983C55.72 159.251 55.5919 157.468 55.0353 155.798C54.533 154.291 53.6934 152.91 53.2335 151.39C52.7735 149.869 52.761 148.071 53.7812 146.852C55.7772 144.467 59.6245 145.968 62.7017 145.493C65.9806 144.988 68.4961 141.849 68.7585 138.548C69.0209 135.247 67.297 131.981 64.7308 129.882C62.1645 127.783 58.8548 126.75 55.553 126.426C51.3126 126.01 47.0363 126.691 43.136 128.403C39.2356 130.115 35.8426 132.8 33.2835 136.2C30.7244 139.6 29.0855 143.6 28.5247 147.815C27.9638 152.031 28.4998 156.319 30.0812 160.268C31.4606 163.713 33.7139 166.921 36.9143 168.808C40.1148 170.694 44.3418 171.057 47.5316 169.152" fill="#2F2E41"/>
<path d="M179.07 153.856H146.816C144.768 153.856 143.101 151.487 143.101 148.576C143.101 145.664 144.768 143.295 146.816 143.295H179.07C181.118 143.295 182.785 145.664 182.785 148.576C182.785 151.487 181.118 153.856 179.07 153.856Z" fill="white"/>
<path d="M265.759 165.378H145.987C145.222 165.378 144.488 165.074 143.947 164.534C143.405 163.994 143.101 163.261 143.101 162.497C143.101 161.733 143.405 161.001 143.947 160.461C144.488 159.92 145.222 159.617 145.987 159.617H265.759C266.525 159.617 267.259 159.92 267.8 160.461C268.341 161.001 268.646 161.733 268.646 162.497C268.646 163.261 268.341 163.994 267.8 164.534C267.259 165.074 266.525 165.378 265.759 165.378Z" fill="#E6E6E6"/>
<path d="M204.286 176.899H145.987C145.222 176.899 144.488 176.596 143.947 176.056C143.405 175.515 143.101 174.783 143.101 174.019C143.101 173.255 143.405 172.522 143.947 171.982C144.488 171.442 145.222 171.138 145.987 171.138H204.286C205.052 171.138 205.786 171.442 206.327 171.982C206.868 172.522 207.172 173.255 207.172 174.019C207.172 174.783 206.868 175.515 206.327 176.056C205.786 176.596 205.052 176.899 204.286 176.899Z" fill="#E6E6E6"/>
<path d="M380 336.04H0V337H380V336.04Z" fill="#3F3D56"/>
</g>
<defs>
<clipPath id="clip0_1_29">
<rect width="380" height="337" fill="white"/>
</clipPath>
</defs>
</svg>
